<svg width="30" height="29" viewBox="0 0 30 29" fill="none" xmlns="http://www.w3.org/2000/svg">
<g filter="url(#filter0_d_3_83)">
<path d="M11.8185 10.25C12.5745 9.335 13.719 8.75 15 8.75C16.281 8.75 17.4255 9.335 18.1815 10.25C18.6792 10.8535 18.9951 11.586 19.0923 12.3622C19.1895 13.1384 19.0639 13.9262 18.7304 14.6338C18.3968 15.3413 17.8689 15.9394 17.2082 16.3583C16.5476 16.7772 15.7815 16.9997 14.9993 16.9997C14.217 16.9997 13.4509 16.7772 12.7903 16.3583C12.1296 15.9394 11.6017 15.3413 11.2681 14.6338C10.9345 13.9262 10.809 13.1384 10.9062 12.3622C11.0034 11.586 11.3193 10.8535 11.817 10.25H11.8185ZM20.625 12.875C20.625 11.927 20.391 11.033 19.977 10.25H26.25C26.8467 10.25 27.419 10.4871 27.841 10.909C28.2629 11.331 28.5 11.9033 28.5 12.5V13.25C28.5 15.6305 26.691 18.068 23.5275 18.926C23.2024 18.342 22.7271 17.8555 22.1509 17.5169C21.5746 17.1783 20.9184 16.9998 20.25 17H18.825C19.3935 16.4739 19.847 15.8359 20.1568 15.1259C20.4666 14.416 20.626 13.6496 20.625 12.875ZM20.25 18.5C20.5457 18.4992 20.8386 18.5569 21.112 18.6697C21.3853 18.7825 21.6337 18.9482 21.8428 19.1572C22.0518 19.3663 22.2175 19.6147 22.3303 19.888C22.4431 20.1614 22.5008 20.4543 22.5 20.75V21.5C22.5 24.4565 19.71 27.5 15 27.5C10.29 27.5 7.5 24.4565 7.5 21.5V20.75C7.49921 20.4543 7.55687 20.1614 7.66966 19.888C7.78245 19.6147 7.94815 19.3663 8.15724 19.1572C8.36633 18.9482 8.61469 18.7825 8.88803 18.6697C9.16137 18.5569 9.4543 18.4992 9.75 18.5H20.25ZM1.5 13.25C1.5 15.6305 3.309 18.068 6.4725 18.926C6.7976 18.342 7.27287 17.8555 7.84911 17.5169C8.42535 17.1783 9.08163 16.9998 9.75 17H11.175C10.6065 16.4739 10.153 15.8359 9.84321 15.1259C9.53342 14.416 9.374 13.6496 9.375 12.875C9.375 11.927 9.609 11.033 10.0245 10.25H3.75C3.15326 10.25 2.58097 10.4871 2.15901 10.909C1.73705 11.331 1.5 11.9033 1.5 12.5V13.25ZM13.125 4.625C13.125 3.53098 12.6904 2.48177 11.9168 1.70818C11.1432 0.934597 10.094 0.5 9 0.5C7.90598 0.5 6.85677 0.934597 6.08318 1.70818C5.3096 2.48177 4.875 3.53098 4.875 4.625C4.875 5.71902 5.3096 6.76823 6.08318 7.54182C6.85677 8.3154 7.90598 8.75 9 8.75C10.094 8.75 11.1432 8.3154 11.9168 7.54182C12.6904 6.76823 13.125 5.71902 13.125 4.625ZM25.125 4.625C25.125 3.53098 24.6904 2.48177 23.9168 1.70818C23.1432 0.934597 22.094 0.5 21 0.5C19.906 0.5 18.8568 0.934597 18.0832 1.70818C17.3096 2.48177 16.875 3.53098 16.875 4.625C16.875 5.71902 17.3096 6.76823 18.0832 7.54182C18.8568 8.3154 19.906 8.75 21 8.75C22.094 8.75 23.1432 8.3154 23.9168 7.54182C24.6904 6.76823 25.125 5.71902 25.125 4.625Z" fill="white"/>
</g>
<defs>
<filter id="filter0_d_3_83" x="-2.5" y="0.5" width="35" height="35" filterUnits="userSpaceOnUse" color-interpolation-filters="sRGB">
<feFlood flood-opacity="0" result="BackgroundImageFix"/>
<feColorMatrix in="SourceAlpha" type="matrix" values="0 0 0 0 0 0 0 0 0 0 0 0 0 0 0 0 0 0 127 0" result="hardAlpha"/>
<feOffset dy="4"/>
<feGaussianBlur stdDeviation="2"/>
<feComposite in2="hardAlpha" operator="out"/>
<feColorMatrix type="matrix" values="0 0 0 0 0 0 0 0 0 0 0 0 0 0 0 0 0 0 0.25 0"/>
<feBlend mode="normal" in2="BackgroundImageFix" result="effect1_dropShadow_3_83"/>
<feBlend mode="normal" in="SourceGraphic" in2="effect1_dropShadow_3_83" result="shape"/>
</filter>
</defs>
</svg>
