<svg width="28" height="24" viewBox="0 0 28 24" fill="none" xmlns="http://www.w3.org/2000/svg">
<path d="M23.8438 5.90625V5.4375C23.8425 4.42178 23.5413 3.42904 22.978 2.58386C22.4146 1.73869 21.6142 1.07873 20.6771 0.686808C19.74 0.294883 18.7081 0.188449 17.7107 0.380862C16.7134 0.573276 15.7951 1.05597 15.0711 1.76836C15.0283 1.81153 14.9944 1.86274 14.9715 1.91906C14.9486 1.97538 14.937 2.03568 14.9375 2.09649V12.4934C14.9377 12.5779 14.9608 12.6608 15.0043 12.7332C15.0477 12.8057 15.11 12.8651 15.1845 12.9051C15.2589 12.9451 15.3428 12.9642 15.4272 12.9604C15.5116 12.9566 15.5935 12.9301 15.6641 12.8836C16.5555 12.312 17.5911 12.0056 18.65 12C18.8951 11.9954 19.1327 12.085 19.3138 12.2502C19.4949 12.4154 19.6059 12.6438 19.6238 12.8883C19.6305 13.0155 19.6112 13.1427 19.5671 13.2622C19.523 13.3817 19.455 13.4909 19.3673 13.5832C19.2795 13.6756 19.1739 13.7491 19.0568 13.7992C18.9398 13.8494 18.8137 13.8752 18.6863 13.875C17.6918 13.875 16.7379 14.2701 16.0347 14.9734C15.3314 15.6766 14.9363 16.6304 14.9363 17.625V21.5953C14.9362 21.6654 14.9519 21.7347 14.9821 21.798C15.0123 21.8612 15.0563 21.9169 15.1109 21.9609C15.7762 22.5115 16.5595 22.9012 17.3999 23.0998C18.2402 23.2984 19.1151 23.3005 19.9565 23.106C20.7978 22.9114 21.5829 22.5255 22.2508 21.9781C22.9187 21.4307 23.4514 20.7367 23.8074 19.95C23.8433 19.8709 23.8564 19.7834 23.8454 19.6972C23.8344 19.611 23.7997 19.5296 23.7451 19.4621C23.6906 19.3945 23.6183 19.3434 23.5364 19.3145C23.4545 19.2856 23.3661 19.2801 23.2813 19.2984C22.697 19.4323 22.0994 19.5 21.5 19.5H20.5941C20.3523 19.503 20.1182 19.4144 19.9389 19.2521C19.7596 19.0897 19.6483 18.8656 19.6273 18.6246C19.6188 18.4964 19.6368 18.3678 19.6801 18.2467C19.7233 18.1257 19.7911 18.0149 19.879 17.9212C19.9669 17.8274 20.0731 17.7528 20.1911 17.7018C20.3091 17.6509 20.4363 17.6247 20.5648 17.625H21.5023C22.4818 17.6265 23.447 17.39 24.3148 16.9359C25.3426 16.4007 26.1964 15.5835 26.7762 14.5801C27.356 13.5768 27.6377 12.429 27.5882 11.2712C27.5388 10.1135 27.1602 8.99384 26.497 8.04361C25.8338 7.09337 24.9134 6.35194 23.8438 5.90625ZM22.4375 10.125H21.9688C20.8499 10.125 19.7768 9.68053 18.9856 8.88936C18.1945 8.09819 17.75 7.02513 17.75 5.90625V5.4375C17.75 5.18886 17.8488 4.9504 18.0246 4.77459C18.2004 4.59877 18.4389 4.5 18.6875 4.5C18.9361 4.5 19.1746 4.59877 19.3504 4.77459C19.5262 4.9504 19.625 5.18886 19.625 5.4375V5.90625C19.625 6.21404 19.6856 6.51881 19.8034 6.80317C19.9212 7.08752 20.0938 7.34589 20.3115 7.56353C20.751 8.00307 21.3472 8.25 21.9688 8.25H22.4375C22.6861 8.25 22.9246 8.34877 23.1004 8.52459C23.2762 8.7004 23.375 8.93886 23.375 9.1875C23.375 9.43614 23.2762 9.6746 23.1004 9.85041C22.9246 10.0262 22.6861 10.125 22.4375 10.125ZM9.3125 0.28125C7.94545 0.282801 6.63484 0.826545 5.66819 1.79319C4.70155 2.75984 4.1578 4.07045 4.15625 5.4375V5.90625C3.08672 6.35218 2.16649 7.09381 1.5035 8.04417C0.840509 8.99454 0.462231 10.1142 0.413029 11.272C0.363827 12.4297 0.64574 13.5775 1.22571 14.5806C1.80568 15.5838 2.65966 16.4009 3.6875 16.9359C4.55536 17.39 5.52053 17.6265 6.5 17.625H7.40586C7.64813 17.6214 7.88276 17.7097 8.06256 17.8721C8.24237 18.0345 8.354 18.259 8.375 18.5004C8.38352 18.6286 8.36557 18.7572 8.32229 18.8783C8.279 18.9993 8.2113 19.1101 8.12338 19.2038C8.03546 19.2976 7.9292 19.3722 7.81122 19.4232C7.69323 19.4741 7.56602 19.5003 7.4375 19.5H6.5C5.90009 19.5003 5.30211 19.4322 4.71758 19.2973C4.63275 19.2788 4.54445 19.2842 4.46252 19.3129C4.38059 19.3417 4.30825 19.3926 4.25357 19.46C4.19889 19.5275 4.16401 19.6088 4.15283 19.6949C4.14165 19.781 4.1546 19.8685 4.19024 19.9477C4.54617 20.7346 5.0788 21.4288 5.7467 21.9764C6.4146 22.524 7.19979 22.9102 8.04123 23.105C8.88267 23.2998 9.75769 23.2979 10.5983 23.0995C11.4389 22.901 12.2224 22.5114 12.8879 21.9609C12.9425 21.9169 12.9865 21.8612 13.0167 21.798C13.047 21.7347 13.0626 21.6654 13.0625 21.5953V17.625C13.0625 16.6304 12.6674 15.6766 11.9642 14.9734C11.2609 14.2701 10.3071 13.875 9.3125 13.875C9.18513 13.8752 9.05907 13.8494 8.94199 13.7992C8.82492 13.7491 8.71929 13.6756 8.63156 13.5832C8.54383 13.4909 8.47584 13.3817 8.43173 13.2622C8.38762 13.1427 8.36831 13.0155 8.375 12.8883C8.39295 12.6436 8.50406 12.415 8.68544 12.2498C8.86683 12.0845 9.10468 11.9951 9.35 12C10.4089 12.0056 11.4445 12.312 12.3359 12.8836C12.4065 12.9301 12.4884 12.9566 12.5728 12.9604C12.6572 12.9642 12.7411 12.9451 12.8156 12.9051C12.89 12.8651 12.9523 12.8057 12.9957 12.7332C13.0392 12.6608 13.0623 12.5779 13.0625 12.4934V2.09649C13.0629 1.97344 13.0149 1.85517 12.9289 1.76719C11.9663 0.814716 10.6667 0.280707 9.3125 0.28125ZM10.25 5.90625C10.25 7.02513 9.80553 8.09819 9.01436 8.88936C8.22319 9.68053 7.15013 10.125 6.03125 10.125H5.5625C5.31386 10.125 5.0754 10.0262 4.89959 9.85041C4.72377 9.6746 4.625 9.43614 4.625 9.1875C4.625 8.93886 4.72377 8.7004 4.89959 8.52459C5.0754 8.34877 5.31386 8.25 5.5625 8.25H6.03125C6.33904 8.25 6.64381 8.18938 6.92817 8.07159C7.21252 7.95381 7.4709 7.78117 7.68853 7.56353C7.90617 7.34589 8.07881 7.08752 8.19659 6.80317C8.31438 6.51881 8.375 6.21404 8.375 5.90625V5.4375C8.375 5.18886 8.47377 4.9504 8.64959 4.77459C8.8254 4.59877 9.06386 4.5 9.3125 4.5C9.56114 4.5 9.7996 4.59877 9.97541 4.77459C10.1512 4.9504 10.25 5.18886 10.25 5.4375V5.90625Z" fill="#FE5667"/>
</svg>
