<svg width="20" height="26" viewBox="0 0 20 26" fill="none" xmlns="http://www.w3.org/2000/svg">
<path fill-rule="evenodd" clip-rule="evenodd" d="M11.25 1.75C11.25 1.41848 11.1183 1.10054 10.8839 0.866116C10.6495 0.631696 10.3315 0.5 10 0.5C9.66848 0.5 9.35054 0.631696 9.11612 0.866116C8.8817 1.10054 8.75 1.41848 8.75 1.75V2.6875H8.05375C6.71379 2.68741 5.42416 3.19799 4.4474 4.1153C3.47065 5.0326 2.8802 6.28767 2.79625 7.625L2.52 12.0425C2.41466 13.7268 1.84912 15.3499 0.884999 16.735C0.685791 17.0213 0.564071 17.3543 0.531677 17.7016C0.499284 18.0489 0.557319 18.3987 0.70014 18.717C0.84296 19.0352 1.0657 19.311 1.34671 19.5177C1.62771 19.7243 1.95742 19.8548 2.30375 19.8962L6.5625 20.4062V21.75C6.5625 22.6617 6.92466 23.536 7.56932 24.1807C8.21398 24.8253 9.08832 25.1875 10 25.1875C10.9117 25.1875 11.786 24.8253 12.4307 24.1807C13.0753 23.536 13.4375 22.6617 13.4375 21.75V20.4062L17.6962 19.895C18.0424 19.8534 18.3719 19.723 18.6527 19.5164C18.9335 19.3098 19.1561 19.0341 19.2989 18.7161C19.4417 18.398 19.4998 18.0485 19.4676 17.7013C19.4354 17.3542 19.3139 17.0213 19.115 16.735C18.1508 15.3499 17.5853 13.7268 17.48 12.0425L17.2038 7.62625C17.1201 6.2887 16.5298 5.03332 15.553 4.11575C14.5762 3.19818 13.2864 2.68743 11.9462 2.6875H11.25V1.75ZM8.4375 21.75C8.4375 22.1644 8.60212 22.5618 8.89514 22.8549C9.18817 23.1479 9.5856 23.3125 10 23.3125C10.4144 23.3125 10.8118 23.1479 11.1049 22.8549C11.3979 22.5618 11.5625 22.1644 11.5625 21.75V20.8125H8.4375V21.75Z" fill="#0C1236"/>
</svg>
