<svg width="24" height="26" viewBox="0 0 24 26" fill="none" xmlns="http://www.w3.org/2000/svg">
<path d="M9.4425 0.762494C11.1287 0.408911 12.8697 0.40806 14.5562 0.759994C14.6686 1.5016 14.9466 2.20836 15.3697 2.82772C15.7928 3.44708 16.35 3.96312 17 4.33749C17.6494 4.71316 18.3752 4.93757 19.1234 4.99406C19.8715 5.05054 20.6228 4.93764 21.3212 4.66374C22.4691 5.94882 23.3386 7.45754 23.875 9.09499C23.2892 9.56322 22.8164 10.1574 22.4918 10.8335C22.1672 11.5095 21.9991 12.25 22 13C21.9991 13.7502 22.1675 14.4909 22.4925 15.167C22.8176 15.8431 23.291 16.4372 23.8775 16.905C23.3379 18.5411 22.4674 20.0486 21.32 21.3337C20.6217 21.06 19.8707 20.9472 19.1228 21.0037C18.3748 21.0602 17.6493 21.2845 17 21.66C16.3506 22.0342 15.7938 22.55 15.3709 23.1689C14.9481 23.7878 14.6701 24.4939 14.5575 25.235C12.8715 25.5894 11.1304 25.5911 9.44375 25.24C9.33193 24.4977 9.05413 23.7902 8.63102 23.1702C8.20792 22.5501 7.65041 22.0335 7 21.6587C6.35045 21.2833 5.62462 21.0591 4.87648 21.0028C4.12834 20.9465 3.37714 21.0597 2.67875 21.3337C1.53075 20.0483 0.661254 18.5391 0.124998 16.9012C0.710489 16.4333 1.18307 15.8395 1.50767 15.1639C1.83226 14.4883 2.00054 13.7483 2 12.9987C2.00061 12.2486 1.83213 11.508 1.50708 10.8319C1.18203 10.1558 0.708777 9.56172 0.122498 9.09374C0.662083 7.45765 1.53265 5.95012 2.68 4.66499C3.37831 4.93869 4.12933 5.05149 4.87724 4.99501C5.62515 4.93853 6.35071 4.71421 7 4.33874C7.64943 3.96449 8.20623 3.44877 8.62907 2.82988C9.05191 2.21098 9.32993 1.50355 9.4425 0.762494ZM12 16.75C12.9946 16.75 13.9484 16.3549 14.6516 15.6516C15.3549 14.9484 15.75 13.9946 15.75 13C15.75 12.0054 15.3549 11.0516 14.6516 10.3483C13.9484 9.64508 12.9946 9.24999 12 9.24999C11.0054 9.24999 10.0516 9.64508 9.34835 10.3483C8.64509 11.0516 8.25 12.0054 8.25 13C8.25 13.9946 8.64509 14.9484 9.34835 15.6516C10.0516 16.3549 11.0054 16.75 12 16.75Z" fill="#0C1236"/>
</svg>
